<?xml version="1.0" encoding="UTF-8" standalone="no"?>
<svg width="510px" height="120px" viewBox="0 0 510 120" version="1.1" xmlns="http://www.w3.org/2000/svg" xmlns:xlink="http://www.w3.org/1999/xlink" xmlns:sketch="http://www.bohemiancoding.com/sketch/ns">
    <g id="Page-1" stroke="none" stroke-width="1" fill="none" fill-rule="evenodd" sketch:type="MSPage">
        <g id="Swwweet-big-logo-color" sketch:type="MSArtboardGroup">
            <g id="logotipo" sketch:type="MSLayerGroup" transform="translate(5.000000, 1.000000)">
                <g id="logo" transform="translate(115.000000, 5.000000)" fill="white" sketch:type="MSShapeGroup">
                    <path d="M29.7475389,58.6141192 L12.5014249,37.178886 C10.6659326,34.8343264 9.73588083,31.5623057 9.73588083,27.4560881 L9.73588083,21.6154145 C9.73588083,17.2669689 10.4871762,14.0234456 11.9690415,11.9768135 C13.3809585,10.0286269 15.5040155,9.08044041 18.4625648,9.08044041 L18.7164508,9.08044041 C21.8641192,9.08044041 24.0156736,10.0053109 25.294171,11.9068653 C26.7190415,14.0234456 27.4418394,17.290285 27.4418394,21.6154145 L27.4418394,30.4638601 L36.3990933,30.4638601 L36.3990933,21.4884715 C36.3990933,14.3524611 34.913342,9.03380829 31.9832902,5.67759067 C28.9871762,2.24624352 24.5234456,0.507901554 18.7164508,0.507901554 L18.4625648,0.507901554 C12.6490933,0.507901554 8.18277202,2.27085492 5.18406736,5.75142487 C2.26178756,9.14650259 0.77992228,14.440544 0.77992228,21.4884715 L0.77992228,27.8369171 C0.77992228,31.817487 1.3265544,35.0700777 2.40686528,37.5091969 C3.44313472,39.8602332 5.30582902,42.6944301 7.93277202,45.9314767 L25.0843264,67.4042746 L25.1141192,67.4392487 C25.940544,68.4016839 26.5752591,69.671114 27.0027202,71.2060881 C27.4625648,72.8498705 27.6957254,74.4897668 27.6957254,76.0804404 L27.6957254,86.3641192 C27.6957254,90.6814767 26.9560881,93.940544 25.4988342,96.0532383 C24.178886,97.9677461 22.044171,98.8990933 18.9703368,98.8990933 L17.9547927,98.8990933 C14.8796632,98.8990933 12.7436528,97.9677461 11.4237047,96.0532383 C9.96645078,93.940544 9.22810881,90.6801813 9.22810881,86.3641192 L9.22810881,76.8809585 L0.272150259,76.8809585 L0.272150259,86.4910622 C0.272150259,93.6296632 1.75660622,98.9483161 4.68536269,102.303238 C7.68147668,105.73329 12.1452073,107.472927 17.9547927,107.472927 L18.9703368,107.472927 C24.8628238,107.472927 29.3680052,105.73329 32.3654145,102.303238 C35.2928756,98.9483161 36.7786269,93.6296632 36.7786269,86.4910622 L36.7786269,75.6996114 C36.7786269,72.1283679 36.2255181,69.1387306 35.1348446,66.813601 C34.1037565,64.6218912 32.294171,61.8641192 29.7475389,58.6141192" id="Fill-1"></path>
                    <path d="M166.12228,84.3049223 L154.764767,27.1676166 L146.886528,27.1676166 L135.596373,83.9746114 L127.041969,27.1676166 L117.504404,27.1676166 L130.452591,106.205181 L139.267358,106.205181 L150.825648,49.9448187 L162.517358,106.205181 L171.2,106.205181 L184.150777,27.1676166 L174.609326,27.1676166 L166.12228,84.3049223 Z" id="Fill-3"></path>
                    <path d="M93.1242228,84.3049223 L81.7680052,27.1676166 L73.8871762,27.1676166 L62.5983161,83.9746114 L54.0413212,27.1676166 L44.5037565,27.1676166 L57.4545337,106.205181 L66.2693005,106.205181 L77.828886,49.9448187 L89.5167098,106.205181 L98.201943,106.205181 L111.151425,27.1676166 L101.608679,27.1676166 L93.1242228,84.3049223 Z" id="Fill-5"></path>
                    <path d="M384.81399,99.5639896 C384.81399,99.5639896 383.10544,100.074352 378.895596,100.074352 C376.490155,100.074352 374.667617,99.5860104 373.522539,97.6676166 C372.781606,96.4292746 372.497927,93.6715026 372.497927,89.9189119 L372.497927,35.3632124 L384.81399,35.3632124 L384.81399,27.1676166 L372.497927,27.1676166 L372.497927,9.64559585 L363.540674,9.64559585 L363.540674,27.1676166 L354.399482,27.1676166 L354.399482,35.3632124 L363.540674,35.3632124 L363.540674,92.203886 C363.540674,97.1287565 364.529016,100.922798 366.482383,103.481088 C369.286788,107.157254 373.75829,107.465544 377.727202,107.465544 C382.904663,107.465544 384.81399,106.529016 384.81399,106.529016 L384.81399,99.5639896 Z" id="Fill-7"></path>
                    <path d="M320.180052,47.0069948 C320.180052,42.6974093 320.935233,39.442228 322.42487,37.334715 C323.786269,35.4085492 326.031088,34.4733161 329.286269,34.4733161 L329.540155,34.4733161 C332.782383,34.4733161 335.001295,35.4033679 336.322539,37.3178756 C337.779793,39.4292746 338.518135,42.6896373 338.518135,47.0069948 L338.518135,62.334715 L320.180052,62.334715 L320.180052,47.0069948 Z M338.647668,86.2971503 C338.490933,90.7336788 337.703368,94.0458549 336.304404,96.1455959 C335.069948,97.9979275 332.898964,98.8994819 329.668394,98.8994819 L329.286269,98.8994819 C326.031088,98.8994819 323.786269,97.9629534 322.42487,96.0354922 C320.935233,93.9279793 320.180052,90.6753886 320.180052,86.3645078 L320.180052,70.2751295 L347.474093,70.2751295 L347.474093,46.8800518 C347.474093,39.6533679 345.988342,34.3088083 343.051813,30.9953368 C340.056995,27.6132124 335.510363,25.8981865 329.540155,25.8981865 L329.286269,25.8981865 C323.316062,25.8981865 318.747409,27.6339378 315.709845,31.057513 C312.733161,34.4137306 311.224093,39.7362694 311.224093,46.8800518 L311.224093,86.4914508 C311.224093,93.7181347 312.71114,99.0639896 315.647668,102.376166 C318.642487,105.759585 323.229275,107.473316 329.286269,107.473316 L329.668394,107.473316 C335.650259,107.473316 340.180052,105.729793 343.13601,102.291969 C346.009067,98.9448187 347.512953,93.6455959 347.603627,86.5419689 L347.781088,79.5484456 L338.82513,79.5484456 L338.647668,86.2971503 Z" id="Fill-10"></path>
                    <path d="M273.601036,47.0069948 C273.601036,42.6974093 274.356218,39.442228 275.84715,37.334715 C277.208549,35.4085492 279.452073,34.4733161 282.707254,34.4733161 L282.96114,34.4733161 C286.203368,34.4733161 288.42228,35.4033679 289.743523,37.3178756 C291.200777,39.4292746 291.939119,42.6896373 291.939119,47.0069948 L291.939119,62.334715 L273.601036,62.334715 L273.601036,47.0069948 Z M292.068653,86.2971503 C291.911917,90.7336788 291.124352,94.0458549 289.725389,96.1455959 C288.489637,97.9979275 286.319948,98.8994819 283.089378,98.8994819 L282.707254,98.8994819 C279.452073,98.8994819 277.207254,97.9629534 275.84715,96.0354922 C274.356218,93.9279793 273.601036,90.6753886 273.601036,86.3645078 L273.601036,70.2751295 L300.896373,70.2751295 L300.896373,46.8800518 C300.896373,39.6533679 299.408031,34.3088083 296.472798,30.9953368 C293.477979,27.6132124 288.931347,25.8981865 282.96114,25.8981865 L282.707254,25.8981865 C276.737047,25.8981865 272.168394,27.6339378 269.130829,31.057513 C266.154145,34.4137306 264.645078,39.7362694 264.645078,46.8800518 L264.645078,86.4914508 C264.645078,93.7181347 266.132124,99.0639896 269.068653,102.376166 C272.063472,105.759585 276.651554,107.473316 282.707254,107.473316 L283.089378,107.473316 C289.071244,107.473316 293.601036,105.729793 296.554404,102.291969 C299.428756,98.9448187 300.932642,93.6455959 301.024611,86.5419689 L301.200777,79.5484456 L292.247409,79.5484456 L292.068653,86.2971503 Z" id="Fill-12"></path>
                    <path d="M239.121503,84.3049223 L227.765285,27.1676166 L219.885751,27.1676166 L208.595596,83.9733161 L200.038601,27.1676166 L190.501036,27.1676166 L203.451813,106.205181 L212.26658,106.205181 L223.826166,49.9448187 L235.515285,106.205181 L244.199223,106.205181 L257.148705,27.1676166 L247.608549,27.1676166 L239.121503,84.3049223 Z" id="Fill-14"></path>
                </g>
                <g id="isotipo" sketch:type="MSShapeGroup">
                    <g id="bolas">
                        <path d="M0,26.3602332 C0,11.8576425 11.753886,0.103756477 26.257772,0.103756477 C40.7551813,0.103756477 52.5090674,11.8576425 52.5090674,26.3602332 C52.5090674,40.8602332 40.7551813,52.6141192 26.257772,52.6141192 C15.5,52.6141192 10.6373057,41.3809585 2.19689119,36.8913212 C0.783678756,33.667228 0,30.1037565 0,26.3602332" id="izquierda" fill="#4F301F"></path>
                        <path d="M26.2571244,26.3602332 C26.2571244,11.8576425 38.009715,0.103756477 52.509715,0.103756477 C67.0110104,0.103756477 78.7648964,11.8576425 78.7648964,26.3602332 C78.7648964,30.1037565 77.9799223,33.667228 76.5680052,36.8913212 C67.5084197,42.4107513 63.2648964,52.6141192 52.509715,52.6141192 C38.009715,52.6141192 26.2571244,40.8602332 26.2571244,26.3602332" id="derecha" fill="#FF6067"></path>
                    </g>
                    <g id="topin" transform="translate(7.000000, 4.000000)">
                        <path d="M53.6457109,10.4833426 C53.4659983,10.4833426 53.2839366,10.4575015 53.1112716,10.4058195 L46.8859347,8.54526599 C45.8898808,8.24691966 45.3190292,7.19213617 45.6173755,6.19608227 C45.8546431,5.40323277 46.6005089,4.85 47.4297708,4.85 C47.6094833,4.85 47.7915451,4.87584102 47.9653846,4.92869765 L54.1918961,6.78807657 C55.18795,7.0864229 55.7564525,8.1400318 55.4592807,9.1360857 C55.2231878,9.9301098 54.4784965,10.4833426 53.6457109,10.4833426" id="Fill-20" fill="#54D4AE"></path>
                        <path d="M42.5758413,26.0467732 C41.9896576,26.0467732 41.444231,25.7878454 41.0762179,25.3371193 C40.4061224,24.5135851 40.5331888,23.2992617 41.3579217,22.6279674 L46.5089064,18.4503594 C46.8505472,18.1746493 47.2796961,18.0224093 47.7208323,18.0224093 C48.3058173,18.0224093 48.8512439,18.2825359 49.2180582,18.7344607 C49.5405192,19.1312436 49.689163,19.6323168 49.6352197,20.1465762 C49.5824751,20.658438 49.3331373,21.1199528 48.9339569,21.4424138 L43.7865684,25.6200218 C43.4461264,25.895732 43.0145801,26.0467732 42.5758413,26.0467732" id="Fill-22" fill="#54D4AE"></path>
                        <path d="M31.5707986,20.2806032 C31.0830217,20.2289563 30.6411532,19.9879371 30.3312714,19.6034542 C30.0213896,19.2201189 29.8790736,18.740376 29.9330159,18.2525991 L30.6032788,11.9401924 C30.7042773,11.0002176 31.493902,10.2909326 32.4384676,10.2909326 C33.6447111,10.4102945 34.3792457,11.3215765 34.2713609,12.3304139 L33.5988027,18.645116 C33.5000996,19.5827954 32.713918,20.2909326 31.7682047,20.2909326 C31.7555799,20.2909326 31.5834234,20.281751 31.5707986,20.2806032" id="Fill-24" fill="#F6F6F6"></path>
                        <path d="M13.8616742,28.7503886 C13.150976,28.7503886 12.4842257,28.3724378 12.123854,27.7659587 L8.57036328,21.7965965 C8.29663148,21.3357728 8.21878116,20.7920762 8.3518801,20.2697256 C8.4837234,19.7461194 8.81270381,19.3066417 9.27478317,19.0341656 C9.58492882,18.849585 9.94153354,18.7503886 10.3031609,18.7503886 C11.0113477,18.7503886 11.6780981,19.1283394 12.0384698,19.7348185 L15.5881935,25.702925 C15.8644366,26.1637487 15.9422869,26.7061897 15.8104436,27.2297959 C15.676089,27.7534022 15.3508756,28.1928798 14.8862849,28.4678673 C14.5773949,28.6524479 14.2233015,28.7503886 13.8616742,28.7503886" id="Fill-26" fill="#F6F6F6"></path>
                        <path d="M18.3849561,7.06232312 C18.1483914,7.06232312 17.915411,7.02050613 17.6931835,6.93328783 L11.5329428,4.54613481 C10.544867,4.163808 10.053816,3.05028117 10.4373376,2.06459487 C10.7204984,1.33220008 11.4409455,0.837564767 12.2294945,0.837564767 C12.4648644,0.837564767 12.6954553,0.881771304 12.9176827,0.966600065 L19.0815078,3.35494785 C20.0683888,3.73727466 20.5594398,4.85199626 20.177113,5.83887734 C19.895147,6.57127213 19.1735052,7.06232312 18.3849561,7.06232312" id="Fill-28" fill="#54D4AE"></path>
                        <path d="M2.06364698,18.3007772 C1.79931385,18.3007772 1.53860172,18.2476692 1.2947876,18.1402461 C0.82043636,17.935056 0.454715178,17.5548508 0.265216083,17.0696366 C0.0769239886,16.5880433 0.0841659923,16.0629981 0.291770096,15.5898538 L2.94958542,9.46673979 C3.25616358,8.75823043 3.95743093,8.3007772 4.73353232,8.3007772 C4.99907245,8.3007772 5.25737058,8.35388523 5.5011847,8.46130828 C6.48006219,8.8873795 6.93148042,10.0316161 6.5066162,11.0129076 L3.84759387,17.1336076 C3.53860172,17.843324 2.83974837,18.3007772 2.06364698,18.3007772" id="Fill-30" fill="#FF6067"></path>
                        <path d="M56.4814771,27.5159346 C55.7650149,27.5159346 55.0998179,27.1320709 54.7409616,26.5156383 C54.4733823,26.0530013 54.4021112,25.5128413 54.5409023,24.9926872 C54.6796934,24.4725332 55.0097912,24.0386546 55.4724282,23.7710754 L61.4567008,20.3012976 C61.7605408,20.1249954 62.105643,20.0312176 62.4582475,20.0312176 C63.17596,20.0312176 63.8449082,20.4163317 64.2012637,21.0327643 C64.4700934,21.4954013 64.5401141,22.0368117 64.4038237,22.5557154 C64.2650326,23.0758695 63.9324341,23.5084976 63.4685467,23.7773272 L57.4880252,27.2446043 C57.1829349,27.4221568 56.8328312,27.5159346 56.4814771,27.5159346" id="Fill-32" fill="#F6F6F6"></path>
                    </g>
                    <path d="M27.9480226,94 L38.2400259,116.82513 C38.8695596,118.225389 39.894171,118.225389 40.525,116.82513 L62.9914835,67 L47.9910904,67 C46.3391568,67 45,65.6534829 45,64 C45,62.3431458 46.3417706,61 47.9910904,61 L65.6969235,61 L76.5677461,36.8911917 L2.19727979,36.8911917 L25.2425826,88 L38.0089096,88 C39.6608432,88 41,89.3465171 41,91 C41,92.6568542 39.6582294,94 38.0089096,94 L27.9480226,94 Z" id="cono" fill="#F8CA84"></path>
                    <path d="M37.4792561,32.1540344 C35.8161525,32.1540344 34.4651968,33.5049901 34.4651968,35.1680937 L34.4651968,29.1791516 C34.4651968,27.5135205 33.1167686,26.1625648 31.4524013,26.1625648 C29.7867702,26.1625648 28.438342,27.5135205 28.438342,29.1791516 L28.438342,41.1595633 C28.438342,42.8239307 29.7867702,44.1736226 31.4524013,44.1736226 C33.1167686,44.1736226 34.4651968,42.8239307 34.4651968,41.1595633 L34.4651968,47.151033 C34.4651968,48.8154003 35.8161525,50.1625648 37.4792561,50.1625648 C39.1436234,50.1625648 40.4945791,48.8154003 40.4945791,47.151033 L40.4945791,35.1680937 C40.4945791,33.5049901 39.1436234,32.1540344 37.4792561,32.1540344" id="gotas" fill="#FF6067"></path>
                </g>
            </g>
        </g>
    </g>
</svg>